<svg width="49" height="50" viewBox="0 0 49 50" fill="none" xmlns="http://www.w3.org/2000/svg">
<mask id="mask0_1_756" style="mask-type:luminance" maskUnits="userSpaceOnUse" x="0" y="0" width="49" height="50">
<path fill-rule="evenodd" clip-rule="evenodd" d="M0.0127563 0.0318604H48.684V49.9869H0.0127563V0.0318604Z" fill="white"/>
</mask>
<g mask="url(#mask0_1_756)">
<path fill-rule="evenodd" clip-rule="evenodd" d="M48.6841 41.6718C48.6841 46.2524 45.0328 50 40.5699 50H8.11394C3.65129 50 0 46.2524 0 41.6718V8.35981C0 3.77946 3.65129 0.0318604 8.11394 0.0318604H40.5699C45.0328 0.0318604 48.6841 3.77946 48.6841 8.35981V41.6718Z" fill="#4D3F71"/>
</g>
<path fill-rule="evenodd" clip-rule="evenodd" d="M18.2007 35.8749H26.9909C28.5024 35.8749 29.6796 35.4749 30.5071 34.6666C31.3423 33.8664 31.7639 32.7234 31.7639 31.2537C31.7639 29.8085 31.3502 28.7063 30.5071 27.9225C29.6639 27.1387 28.5024 26.7631 26.9909 26.7631H18.2007V35.8749ZM18.2007 23.0972H26.3149C27.5081 23.0972 28.5024 22.7544 29.298 22.0522C30.0934 21.35 30.4912 20.3539 30.4912 19.0476C30.4912 17.578 30.1331 16.5411 29.4171 15.945C28.7013 15.3489 27.6672 15.0467 26.3149 15.0467H18.2007V23.0972ZM13.229 10.8911H27.0307C29.5762 10.8911 31.6208 11.4869 33.156 12.6871C34.6913 13.8873 35.4629 15.6917 35.4629 18.1168C35.4629 19.5865 35.1129 20.8437 34.4128 21.8889C33.7128 22.9338 32.7106 23.7504 31.4059 24.3218V24.4035C33.156 24.7873 34.4845 25.6365 35.3833 26.9509C36.2823 28.2736 36.7356 29.9229 36.7356 31.9151C36.7356 33.0581 36.5367 34.1277 36.1391 35.1157C35.7413 36.1118 35.1208 36.969 34.2697 37.6876C33.4185 38.4061 32.3366 38.9775 31.0081 39.4022C29.6796 39.8266 28.1046 40.0391 26.2751 40.0391H13.229V10.8911Z" fill="#FFFFFE"/>
</svg>
