<svg width="23" height="50" viewBox="0 0 23 50" fill="none" xmlns="http://www.w3.org/2000/svg">
<path d="M17.7244 48.476L18.2119 40.4875L19.5583 38.2278C19.5583 38.2278 16.494 39.4603 11.3641 39.4603C6.23398 39.4603 3.21622 38.2506 3.21622 38.2506L4.72505 40.7156L5.25881 48.476C5.25881 49.308 8.04927 49.9824 11.4916 49.9824C14.9338 49.9824 17.7244 49.308 17.7244 48.476Z" fill="#D34A47"/>
<path d="M16.1863 11.1708L17.2098 7.19337L22.8772 1.32977L21.3834 0.0787964L15.3833 6.325L14.195 11.077C13.3341 11.0484 12.4355 11.0331 11.5111 11.0331C5.19189 11.0331 0.0690918 11.7413 0.0690918 12.6146C0.0690918 13.488 5.19189 14.196 11.5111 14.196C17.8303 14.196 22.953 13.488 22.953 12.6146C22.953 11.9715 20.1747 11.4179 16.1863 11.1708Z" fill="#D34A47"/>
<path d="M15.591 13.3983C15.591 13.3983 15.3694 13.4472 14.7174 13.4499C14.0652 13.4526 13.6022 13.4458 13.4177 13.2806C13.3681 13.2362 13.341 13.1481 13.3412 13.0885C13.3418 12.975 13.4237 12.9081 13.5281 12.8663L13.6269 13.0186C13.5839 13.0331 13.5594 13.0504 13.5593 13.0687C13.5589 13.1549 14.2261 13.214 14.7364 13.2076C15.2468 13.2014 15.8635 13.1601 15.8641 13.0751C15.8641 13.0494 15.8174 13.0252 15.7363 13.0061L15.8346 12.8549C15.9668 12.8952 16.0823 12.9732 16.082 13.1082C16.0808 13.3377 15.7837 13.3726 15.591 13.3983Z" fill="white"/>
<path d="M22.866 1.34133C23.0085 1.17949 22.7923 0.765536 22.383 0.416861C21.9736 0.0683624 21.5262 -0.0830511 21.3834 0.0787864C21.2409 0.240624 21.4572 0.654581 21.8666 1.00308C22.2759 1.35167 22.7235 1.50326 22.866 1.34133Z" fill="#D34A47"/>
<path d="M17.4518 28.9633C17.3175 27.6927 20.2785 25.8524 19.5186 25.7935C17.8827 25.8854 17.0685 27.6785 16.2455 29.5564C15.9438 30.2446 14.9118 33.1794 14.2349 32.8181C13.5582 32.457 15.1123 30.0436 15.5478 28.6104C15.0452 28.9728 13.2021 30.3808 12.7271 29.0622C11.9634 29.6999 10.3316 30.0454 10.5157 28.3702C10.1094 29.0778 9.19757 30.0657 8.10309 29.6552C6.66577 29.1163 8.93595 24.6144 9.50043 24.8415C10.065 25.0686 9.38651 26.0941 9.2088 26.4923C8.81798 27.3687 8.36652 28.4705 8.66812 28.696C9.18481 29.0824 10.5909 27.2343 10.6221 27.1936C10.8851 26.852 11.6343 24.6171 12.2382 24.8738C12.842 25.1304 10.732 28.0812 11.5209 28.6668C11.68 28.785 12.3311 28.5939 12.7271 28.1726C12.9833 27.9001 12.8952 27.2965 13.7493 25.2936C14.6035 23.2909 15.3647 20.7967 15.9505 20.9868C16.5363 21.1767 16.0535 22.4568 15.8433 22.934C14.8572 25.1738 13.152 28.874 13.9561 28.5939C14.7603 28.3139 15.1791 28.2974 15.9666 27.3914C16.7541 26.4853 16.7178 24.9928 17.2426 25.0245C17.7677 25.0563 17.6795 25.5348 17.5522 25.8992C18.0688 25.3179 20.001 24.0937 20.4675 25.3062C21.02 26.7416 17.7031 28.815 18.5301 28.7093C19.3364 28.6062 20.6428 27.7927 21.2005 27.053L22.7358 13.4818C22.7358 13.4818 21.1909 14.7389 11.3625 14.7389C1.53408 14.7389 0.149048 13.508 0.149048 13.508L1.45609 25.8952C2.14987 23.9565 3.79733 20.0349 6.39418 20.1665C7.57544 20.2264 9.15238 22.4629 7.80158 22.5387C7.22981 22.5707 7.17177 21.4224 6.49471 21.2537C6.00614 21.132 5.32593 21.5225 4.88633 21.9457C4.00963 22.7893 2.12408 26.1179 2.37322 27.7773C2.69064 29.8929 5.34238 27.0421 5.79106 26.1958C6.10704 25.5996 6.3205 23.8331 7.01158 24.0185C7.70275 24.2038 6.9513 26.0268 6.45033 27.6385C5.88755 29.4483 5.59169 31.3574 4.88633 31.1378C4.18088 30.9184 5.32998 28.582 5.28838 28.1726C4.62533 28.7741 3.40382 30.2969 1.84108 29.5432L2.65281 37.2356C2.65281 37.2356 4.81023 38.9117 11.3093 38.9117C17.8083 38.9117 20.0456 37.2618 20.0456 37.2618L21.0535 28.3521C20.2289 29.1417 17.6189 30.5438 17.4518 28.9633Z" fill="#D34A47"/>
</svg>
