<svg width="50" height="45" viewBox="0 0 50 45" fill="none" xmlns="http://www.w3.org/2000/svg">
<path d="M0.147278 22.4512C0.147278 26.2105 3.81182 29.72 9.58928 31.6981C8.43558 37.5164 9.38252 42.2058 12.5454 44.0331C15.7965 45.9112 20.6399 44.6112 25.2369 40.5859C29.7179 44.4487 34.2468 45.9689 37.4067 44.1364C40.6547 42.2529 41.6426 37.2453 40.457 31.2455C46.4746 29.2525 49.8406 26.26 49.8406 22.4512C49.8406 18.779 46.1693 15.6021 40.4697 13.6366C41.7461 7.38876 40.6646 2.81309 37.3708 0.910335C34.1952 -0.924037 29.6137 0.674805 25.0668 4.63878C20.3365 0.431334 15.8003 -0.853252 12.5096 1.05505C9.33714 2.89464 8.43185 7.66932 9.58928 13.5953C4.00691 15.545 0.147278 18.7937 0.147278 22.4512Z" fill="white"/>
<path d="M39.2626 15.5885C38.8048 15.4306 38.3304 15.2812 37.8419 15.14C37.9222 14.8118 37.9959 14.4878 38.0614 14.1693C39.1368 8.94007 38.4337 4.72734 36.0327 3.34033C33.7304 2.01037 29.9652 3.39706 26.1625 6.71217C25.7969 7.03094 25.4302 7.36845 25.0636 7.72217C24.8194 7.48814 24.5756 7.26198 24.3324 7.04566C20.3471 3.50093 16.3524 2.00714 13.9537 3.39816C11.6537 4.73198 10.9725 8.69235 11.9405 13.6482C12.034 14.1268 12.1433 14.6157 12.2669 15.1127C11.7015 15.2735 11.1557 15.4448 10.6335 15.6272C5.96112 17.259 2.97714 19.8165 2.97714 22.4692C2.97714 25.209 6.18044 27.9571 11.0471 29.6233C11.4311 29.7548 11.8296 29.8792 12.2403 29.9972C12.107 30.5347 11.991 31.0615 11.8937 31.5753C10.9707 36.4451 11.6915 40.3119 13.9855 41.6373C16.3549 43.0061 20.3315 41.5991 24.2037 38.2085C24.5097 37.9405 24.8169 37.6562 25.1246 37.3583C25.5234 37.743 25.9216 38.1071 26.3177 38.4486C30.0683 41.6818 33.7727 42.9874 36.0646 41.6583C38.4317 40.2856 39.2009 36.1317 38.2022 31.0779C38.1259 30.6919 38.0372 30.2976 37.9375 29.8962C38.2167 29.8135 38.4909 29.7282 38.7582 29.6394C43.8175 27.9602 47.1093 25.2456 47.1093 22.4692C47.1093 19.8069 44.0291 17.2322 39.2626 15.5885Z" fill="#53C1DE"/>
<path fill-rule="evenodd" clip-rule="evenodd" d="M36.215 13.7881C37.1435 9.27319 36.5688 5.83014 35.091 4.97642C33.7035 4.17495 30.6584 5.29638 27.4002 8.13674C27.063 8.4308 26.7243 8.74242 26.3852 9.06923C27.6466 10.4307 28.9032 12.0034 30.1159 13.7333C32.1975 13.9289 34.1857 14.2438 36.0166 14.667C36.0891 14.3696 36.1558 14.0762 36.215 13.7881ZM14.8983 5.0326C13.5122 5.83636 12.9613 9.0394 13.7907 13.2854C13.8775 13.7299 13.9793 14.1846 14.0941 14.6474C15.9208 14.2329 17.9076 13.9233 19.9832 13.7306C21.1935 12.0195 22.4605 10.4493 23.7427 9.07009C23.5213 8.85826 23.3005 8.6535 23.0805 8.45787C19.6395 5.39718 16.3747 4.17636 14.8983 5.0326ZM11.6568 27.8362C9.50486 27.0994 7.72772 26.1418 6.50958 25.0969C5.415 24.1579 4.86237 23.2256 4.86237 22.4692C4.86237 20.8594 7.2582 18.8061 11.254 17.4105C11.7389 17.2412 12.2464 17.0816 12.7731 16.9317C13.3254 18.7312 14.0498 20.6126 14.924 22.5151C14.0385 24.4459 13.3038 26.3573 12.7461 28.1779C12.3706 28.0698 12.0068 27.956 11.6568 27.8362ZM38.1653 27.8467C37.924 27.9267 37.6763 28.0041 37.424 28.0791C36.8655 26.3078 36.1117 24.4243 35.1892 22.4784C36.0695 20.5788 36.7942 18.7194 37.3371 16.9596C37.7885 17.0905 38.2267 17.2285 38.6489 17.3741C42.7328 18.7825 45.224 20.8647 45.224 22.4692C45.224 24.1782 42.5336 26.3967 38.1653 27.8467ZM36.3527 31.4446C36.7943 33.6794 36.8574 35.6998 36.5649 37.2793C36.302 38.6986 35.7734 39.6449 35.1199 40.0238C33.7291 40.8303 30.7548 39.782 27.5472 37.017C27.1795 36.7 26.8091 36.3615 26.4375 36.0033C27.6811 34.641 28.9239 33.0571 30.1368 31.2982C32.2703 31.1085 34.2859 30.7985 36.1138 30.3752C36.2038 30.739 36.2838 31.0958 36.3527 31.4446ZM14.9275 40.0011C15.5817 40.379 16.6639 40.3652 18.0228 39.8845C19.535 39.3494 21.2508 38.2857 22.9631 36.7864C23.2419 36.5421 23.5224 36.2829 23.8039 36.0107C22.5153 34.6254 21.2366 33.0433 20.0155 31.3221C17.8769 31.1484 15.876 30.8602 14.0682 30.4598C13.9441 30.9606 13.8365 31.4505 13.7461 31.9275C12.9567 36.0921 13.5354 39.1968 14.9275 40.0011ZM32.8273 17.9942C32.3906 17.2386 31.9423 16.5009 31.4853 15.7833C32.8934 15.9616 34.2425 16.1983 35.5094 16.488C35.1291 17.7091 34.655 18.9859 34.0969 20.2948C33.6966 19.5334 33.2732 18.7658 32.8273 17.9942ZM27.6613 13.5604C26.8047 12.4172 25.9338 11.3635 25.0643 10.4198C24.1811 11.3744 23.3027 12.4267 22.4452 13.5593C23.3031 13.5191 24.1705 13.4984 25.0432 13.4984C25.9243 13.4984 26.7981 13.5196 27.6613 13.5604ZM17.2514 18.0073C16.8152 18.765 16.3997 19.5285 16.0056 20.2933C15.4566 18.989 14.987 17.7065 14.6033 16.468C15.8624 16.1857 17.2052 15.9549 18.6043 15.78C18.1408 16.5042 17.6888 17.2474 17.2514 18.0071V18.0073ZM14.5773 28.6381C15.8361 28.9126 17.1991 29.1315 18.6446 29.293C18.1692 28.554 17.706 27.7962 17.259 27.0226H17.2589C16.82 26.2633 16.4028 25.4995 16.0078 24.7352C15.4471 26.0676 14.9671 27.3775 14.5773 28.6381ZM25.1164 34.6517C24.2229 33.6859 23.3316 32.6176 22.4611 31.4684C23.3061 31.5017 24.1676 31.5187 25.0432 31.5187C25.9427 31.5187 26.832 31.4983 27.7072 31.4593C26.8478 32.6291 25.9801 33.6991 25.1164 34.6517ZM35.5969 28.5562C35.202 27.3172 34.7048 26.014 34.1149 24.6672C33.7113 25.4466 33.2844 26.2287 32.8349 27.0096C32.3905 27.7815 31.9382 28.5319 31.4801 29.2592C32.9357 29.0842 34.3173 28.8487 35.5969 28.5562ZM31.2018 26.0661C30.5119 27.2644 29.8037 28.4082 29.0847 29.4879C27.7751 29.5817 26.4221 29.6301 25.0432 29.6301C23.6698 29.6301 22.3339 29.5873 21.0475 29.5037C20.2995 28.4098 19.5759 27.2626 18.8904 26.0764H18.8906C18.2069 24.8936 17.5777 23.7007 17.0075 22.5145C17.5775 21.3255 18.2051 20.1313 18.8848 18.9506L18.8847 18.9508C19.5662 17.7669 20.2835 16.6252 21.0246 15.5382C22.3371 15.4388 23.6829 15.387 25.0431 15.387H25.0432C26.4095 15.387 27.7571 15.4392 29.0692 15.5395C29.799 16.6185 30.5114 17.7565 31.1956 18.9406C31.8876 20.1379 32.5232 21.3242 33.0981 22.4877C32.525 23.6711 31.8907 24.8693 31.2018 26.0661Z" fill="white"/>
<path d="M25.0432 18.5215C27.2196 18.5215 28.9841 20.2889 28.9841 22.4692C28.9841 24.6494 27.2196 26.4169 25.0432 26.4169C22.8668 26.4169 21.1024 24.6494 21.1024 22.4692C21.1024 20.2889 22.8668 18.5215 25.0432 18.5215Z" fill="#53C1DE"/>
</svg>
