<svg width="44" height="50" viewBox="0 0 44 50" fill="none" xmlns="http://www.w3.org/2000/svg">
<path d="M22 0L44 12.4943V37.4886L22 49.9829L0 37.4886V12.4943L22 0Z" fill="white"/>
<path fill-rule="evenodd" clip-rule="evenodd" d="M3.41655 13.613L21.2041 3.51025V10.9246L9.80621 17.2203L9.71526 17.2717L3.41655 13.613ZM2.67184 14.9486V35.5479L9.01603 31.8721V18.6301L2.67184 14.9486ZM41.26 14.9486V35.5479L34.9158 31.8721V18.6301L41.26 14.9486ZM22.7277 46.4783L40.0718 36.6267L33.5344 32.8367L22.7277 38.8071V46.4783ZM3.85996 36.6267L21.2041 46.4783V38.8071L10.3917 32.8367L3.85996 36.6267ZM22.7277 3.51025L40.5153 13.613L34.2165 17.266L34.1256 17.2146L22.7277 10.9246V3.51025Z" fill="#8ED6FB"/>
<path fill-rule="evenodd" clip-rule="evenodd" d="M21.9659 12.2546L11.2615 18.1621L21.9659 24.3664L32.6703 18.1621L21.9659 12.2546ZM21.2041 37.0605L10.5395 31.1701V19.5091L21.2041 25.6907V37.0605ZM22.7276 37.0605L33.3922 31.1758V19.5091L22.7276 25.6907V37.0605Z" fill="#1C78C0"/>
</svg>
